{"title":"Shuddh Desi Romance 2013 BRRip 720p x264 Hindi ESubs - ViZNU [P2","uid":9344571,"size":964619653,"categoryP":"video","categoryS":"hd___movies","magnet":"?xt=urn:btih:10e8ac0c90939c000c145036758380cd4290b890&amp;dn=Shuddh+Desi+Romance+2013+BRRip+720p+x264+Hindi+ESubs+-+ViZNU+%5BP2&amp;tr=udp%3A%2F%2Ftracker.openbittorrent.com%3A80&amp;tr=udp%3A%2F%2Fopen.demonii.com%3A1337&amp;tr=udp%3A%2F%2Ftracker.coppersurfer.tk%3A6969&amp;tr=udp%3A%2F%2Fexodus.desync.com%3A6969","seeders":6,"leechers":2,"uploader":"Vitamin_X","files":-1,"time":1387004894,"description":"_______ Visit us at our Semi Public Bittorrent Community ________\n  &lt;a href=&quot;\nhttp://p2pdl.com&quot; rel=&quot;nofollow&quot; target=&quot;_NEW&quot;&gt;\nhttp://p2pdl.com&lt;/a&gt;  _____________________________ &lt;a href=&quot; http://p2pdl.com&quot; rel=&quot;nofollow&quot; target=&quot;_NEW&quot;&gt; http://p2pdl.com&lt;/a&gt;\n\n\nShuddh Desi Romance 2013 BRRip 720p x264 Hindi ESubs - ViZNU\n\n\nGenre: Comedy | Romance | Drama\nPlot: A story about the hair-raising minefield between \nlove, attraction and commitment.\nDirector: Maneesh Sharma\nStars: Sushant Singh Rajput, Parineeti Chopra, Rishi Kapoor.\nRated: U/A .\n\n\nIMDb: &lt;a href=&quot;\nhttp://www.imdb.com/title/tt2988272/&quot; rel=&quot;nofollow&quot; target=&quot;_NEW&quot;&gt;\nhttp://www.imdb.com/title/tt2988272/&lt;/a&gt;\n\n\n\nGeneral\nFormat                         : MPEG-4\nFile size                      : 1 012 MiB\nDuration                       : 2h 22mn\nOverall bit rate mode          : Variable\nOverall bit rate               : 991 Kbps\n\nVideo\nFormat                         : AVC\nBit rate                       : 909 Kbps\nWidth                          : 1 280 pixels\nHeight                         : 544 pixels\nDisplay aspect ratio           : 2.35:1\nFrame rate mode                : Constant\nFrame rate                     : 23.976 fps\nBit depth                      : 10 bits\nStream size                    : 928 MiB (92%)\nWriting library                : x264 core 140 r2377 1ca7bb9\n\nAudio\nFormat                         : AAC\nBit rate                       : 79.8 Kbps\nChannel count                  : 2 channels\nChannel positions              : Front: L R\nSampling rate                  : 48.0 KHz / 24.0 KHz\nStream size                    : 81.6 MiB (8%)\nLanguage                       : Hindi\n\n\nSubtitle                       : Yes (English)\n\nSource                         : Blu-Ray - x264 - 720p - AC3 - [DDR]\n &lt;a href=&quot;\nhttp://someimage.com/yTliQvL&quot; rel=&quot;nofollow&quot; target=&quot;_NEW&quot;&gt;\nhttp://someimage.com/yTliQvL&lt;/a&gt; &lt;a href=&quot;\nhttp://someimage.com/FLcRdqG&quot; rel=&quot;nofollow&quot; target=&quot;_NEW&quot;&gt;\nhttp://someimage.com/FLcRdqG&lt;/a&gt; &lt;a href=&quot;\nhttp://someimage.com/i4tRzUM&quot; rel=&quot;nofollow&quot; target=&quot;_NEW&quot;&gt;\nhttp://someimage.com/i4tRzUM&lt;/a&gt; &lt;a href=&quot;\nhttp://someimage.com/I24jUce&quot; rel=&quot;nofollow&quot; target=&quot;_NEW&quot;&gt;\nhttp://someimage.com/I24jUce&lt;/a&gt; &lt;a href=&quot;\nhttp://someimage.com/FOI4xUc&quot; rel=&quot;nofollow&quot; target=&quot;_NEW&quot;&gt;\nhttp://someimage.com/FOI4xUc&lt;/a&gt; &lt;a href=&quot;\nhttp://someimage.com/efOKRRr&quot; rel=&quot;nofollow&quot; target=&quot;_NEW&quot;&gt;\nhttp://someimage.com/efOKRRr&lt;/a&gt; &lt;a href=&quot;\nhttp://someimage.com/V7Y41hL&quot; rel=&quot;nofollow&quot; target=&quot;_NEW&quot;&gt;\nhttp://someimage.com/V7Y41hL&lt;/a&gt; &lt;a href=&quot;\nhttp://someimage.com/q2nYVi8&quot; rel=&quot;nofollow&quot; target=&quot;_NEW&quot;&gt;\nhttp://someimage.com/q2nYVi8&lt;/a&gt; &lt;a href=&quot;\nhttp://someimage.com/FlcaZK5&quot; rel=&quot;nofollow&quot; target=&quot;_NEW&quot;&gt;\nhttp://someimage.com/FlcaZK5&lt;/a&gt;\n\n----------------------------------------------------------------------------------------------------\n\n\nEncoded using revolutionary 10bit encoding, which enables us to provide you more crispier \nand sharper images at small sizes, just make sure you follow our instructions without a fault.\nRecommend to you to use latest version of VLC player. Install K-Lite Codec Pack or shark007 codecs\nin case of any kind of problem in playback (For non-VLC Media Player users). Alternatively, install\nCore AVC codecs, the fastest decoder that there is coupled with Community Center Codec Pack and play\non Windows Media Player Classic. Check sample to be sure.\nEnjoy!\n\nEncoder Notes:Looking For Early Access To Anything You Can Provide DVDScr, R5, DVDR, BluRay, Direct\nAudio, Music Releases and Seedboxes. We require dedicated servers, so as to do more \nand fast releases of movies.\nIf You Got anything to offer please contact us at &quot;&lt;a class=&quot;__cf_email__&quot; href=&quot;/cdn-cgi/l/email-protection&quot; data-cfemail=&quot;82f2f0e5c2eaf7f1eaace1edef&quot;&gt;[email&amp;#160;protected]&lt;/a&gt;&lt;script data-cfhash='f9e31' type=&quot;text/javascript&quot;&gt;\n/* &lt;![CDATA[ */!function(){try{var t=&quot;currentScript&quot;in document?document.currentScript:function(){for(var t=document.getElementsByTagName(&quot;script&quot;),e=t.length;e--;)if(t[e].getAttribute(&quot;data-cfhash&quot;))return t[e]}();if(t&amp;&amp;t.previousSibling){var e,r,n,i,c=t.previousSibling,a=c.getAttribute(&quot;data-cfemail&quot;);if(a){for(e=&quot;&quot;,r=parseInt(a.substr(0,2),16),n=2;a.length-n;n+=2)i=parseInt(a.substr(n,2),16)^r,e+=String.fromCharCode(i);e=document.createTextNode(e),c.parentNode.replaceChild(e,c)}t.parentNode.removeChild(t);}}catch(u){}}()/* ]]&gt; */&lt;/script&gt;&quot;.\n\nFacebook Fan Page:  \nSearch P2PDL on FB and don't forget to hit like!!!\n\nSupport us, please consider a donation.\n\nFor more of our team uploads visit @            &lt;a href=&quot;\nhttp://thepiratebay.se/user/ValidusVyto&quot; rel=&quot;nofollow&quot; target=&quot;_NEW&quot;&gt;\nhttp://thepiratebay.se/user/ValidusVyto&lt;/a&gt;\t\t","torrent":{"xt":"urn:btih:10e8ac0c90939c000c145036758380cd4290b890","amp;dn":"Shuddh+Desi+Romance+2013+BRRip+720p+x264+Hindi+ESubs+-+ViZNU+%5BP2","amp;tr":["udp%3A%2F%2Ftracker.openbittorrent.com%3A80","udp%3A%2F%2Fopen.demonii.com%3A1337","udp%3A%2F%2Ftracker.coppersurfer.tk%3A6969","udp%3A%2F%2Fexodus.desync.com%3A6969"],"infoHash":"10e8ac0c90939c000c145036758380cd4290b890","infoHashBuffer":{"type":"Buffer","data":[16,232,172,12,144,147,156,0,12,20,80,54,117,131,128,205,66,144,184,144]},"announce":[],"urlList":[]}}